<svg width="250" height="71" viewBox="0 0 250 71" fill="none" xmlns="http://www.w3.org/2000/svg">
<g clip-path="url(#clip0)">
<path d="M19.4028 38.6066C15.3383 38.6066 11.8604 37.7985 8.96907 36.1824C6.13425 34.6255 3.81995 32.2694 2.31426 29.4073C0.771419 26.5067 0 23.1393 0 19.3051C0 15.4708 0.771419 12.1034 2.31426 9.20288C3.81973 6.33969 6.134 3.98236 8.96907 2.42424C11.8628 0.808081 15.3407 0 19.4028 0C23.4649 0 26.9428 0.808081 29.8365 2.42424C32.67 3.98438 34.9838 6.34119 36.4913 9.20288C38.0318 12.1011 38.802 15.4685 38.802 19.3051C38.802 23.1417 38.0318 26.5091 36.4913 29.4073C34.9835 32.2679 32.6698 34.6235 29.8365 36.1824C26.9428 37.8009 23.4649 38.609 19.4028 38.6066ZM19.4988 28.6537C20.5935 28.6694 21.6516 28.259 22.4493 27.5091C23.3621 26.6042 24.0258 25.479 24.3761 24.2424C24.8626 22.6052 25.0928 20.9025 25.0587 19.1949C25.0943 17.4837 24.8641 15.7773 24.3761 14.1367C24.0245 12.9048 23.3608 11.7845 22.4493 10.8842C21.6524 10.1331 20.5938 9.72244 19.4988 9.73963C18.3601 9.71578 17.2547 10.1248 16.406 10.8842C15.4665 11.7709 14.7837 12.8945 14.4294 14.1367C13.9415 15.7773 13.7112 17.4837 13.7469 19.1949C13.7116 20.9061 13.9419 22.6124 14.4294 24.2531C14.782 25.5001 15.4649 26.6288 16.406 27.5198C17.2557 28.2776 18.3604 28.6864 19.4988 28.6644V28.6537Z" fill="#011F2F"/>
<path d="M62.3036 38.6066C58.2439 38.6066 54.7672 37.7985 51.8735 36.1824C49.0386 34.6255 46.7243 32.2694 45.2186 29.4073C43.6711 26.5067 42.8985 23.1393 42.9008 19.3051C42.9032 15.4708 43.6758 12.1034 45.2186 9.20288C46.7241 6.33969 49.0384 3.98236 51.8735 2.42424C54.7624 0.808081 58.2391 0 62.3036 0C65.9746 0 69.1563 0.662344 71.8486 1.98703C74.43 3.21344 76.6016 5.16019 78.1017 7.59264C79.5805 10.0074 80.3271 12.8392 80.3413 16.0882H67.8635C67.6822 14.1225 67.1205 12.6224 66.1678 11.5916C65.7054 11.082 65.138 10.6789 64.5045 10.4101C63.8711 10.1412 63.1869 10.0132 62.4991 10.0347C61.3901 10.0146 60.3071 10.3718 59.4277 11.0477C58.4645 11.8435 57.7532 12.9018 57.38 14.094C56.8558 15.743 56.6154 17.469 56.669 19.1984C56.615 20.9291 56.8554 22.6563 57.38 24.3064C57.7541 25.4982 58.4653 26.5562 59.4277 27.3527C60.3071 28.0286 61.3901 28.3858 62.4991 28.3658C63.4263 28.3788 64.3386 28.1326 65.1333 27.6549C65.9303 27.1561 66.5747 26.4478 66.9961 25.6074C67.5099 24.5783 67.8052 23.454 67.8635 22.3052H80.3413C80.2962 25.6038 79.5414 28.476 78.0768 30.9215C76.6055 33.3836 74.4453 35.3608 71.8628 36.6089C69.1966 37.9431 66.0102 38.609 62.3036 38.6066Z" fill="#011F2F"/>
<path d="M103.857 38.6066C99.8613 38.6066 96.4249 37.84 93.5478 36.3068C90.7119 34.8166 88.3924 32.5047 86.893 29.6739C85.343 26.7899 84.5681 23.3337 84.5681 19.3051C84.5681 15.4377 85.3478 12.0573 86.9072 9.16381C88.4133 6.32409 90.7066 3.97909 93.5122 2.41006C96.3562 0.798633 99.712 -0.005894 103.58 -0.00352426C106.198 -0.0401904 108.801 0.405645 111.258 1.31168C113.472 2.13966 115.477 3.44141 117.135 5.12578C118.798 6.85243 120.076 8.91197 120.885 11.1686C121.797 13.7422 122.244 16.4577 122.204 19.1878V22.3088H88.7273V14.9152H109.79C109.791 13.9091 109.508 12.9233 108.973 12.0715C108.444 11.2522 107.708 10.5875 106.84 10.1449C105.909 9.66521 104.875 9.4211 103.829 9.43396C102.787 9.42835 101.76 9.67212 100.832 10.1449C99.9511 10.5829 99.1991 11.2418 98.6491 12.0573C98.0958 12.9034 97.7961 13.8901 97.7853 14.9009V22.8988C97.7662 24.017 98.0252 25.1224 98.5389 26.1157C99.034 27.0489 99.7883 27.8192 100.711 28.3338C101.759 28.8957 102.935 29.1727 104.124 29.1372C104.988 29.146 105.847 29.014 106.669 28.7461C107.403 28.5095 108.079 28.1234 108.656 27.6122C109.202 27.1286 109.621 26.5183 109.876 25.8349H122.161C121.789 28.3157 120.752 30.6494 119.161 32.5887C117.491 34.5779 115.345 36.1125 112.922 37.0497C110.327 38.09 107.305 38.609 103.857 38.6066Z" fill="#011F2F"/>
<path d="M138.063 38.5106C135.896 38.5525 133.744 38.1509 131.738 37.3305C129.973 36.5948 128.473 35.3404 127.437 33.7332C126.394 32.1266 125.874 30.0791 125.876 27.5909C125.827 25.7831 126.185 23.9874 126.925 22.3372C127.591 20.9287 128.597 19.7075 129.851 18.7826C131.169 17.8168 132.65 17.0946 134.223 16.6498C135.985 16.1459 137.795 15.8278 139.623 15.7007C141.721 15.5372 143.407 15.3381 144.682 15.1035C145.957 14.8689 146.879 14.536 147.448 14.1047C147.72 13.9095 147.94 13.6506 148.088 13.3507C148.237 13.0508 148.31 12.7189 148.301 12.3843V12.2883C148.321 11.8499 148.229 11.4135 148.033 11.0208C147.837 10.6281 147.544 10.2923 147.181 10.0453C146.325 9.49551 145.321 9.22361 144.305 9.26687C143.2 9.21772 142.106 9.51067 141.173 10.1058C140.761 10.4057 140.418 10.7907 140.168 11.2347C139.918 11.6788 139.766 12.1714 139.723 12.6793H127.337C127.493 10.4222 128.247 8.2472 129.52 6.37698C130.809 4.45038 132.698 2.91005 135.187 1.75599C137.675 0.601923 140.78 0.0213359 144.5 0.0142267C146.937 -0.0181963 149.366 0.297804 151.713 0.952643C153.666 1.49283 155.506 2.37632 157.149 3.56173C158.57 4.59128 159.742 5.9277 160.576 7.4718C161.365 8.96147 161.77 10.6241 161.756 12.3096V37.949H149.179V32.6598H148.887C148.219 33.9619 147.294 35.1154 146.168 36.0508C145.097 36.9149 143.863 37.5522 142.538 37.9241C141.081 38.3283 139.575 38.5257 138.063 38.5106ZM142.453 30.0293C143.45 30.0341 144.436 29.818 145.339 29.3966C146.223 28.9895 146.984 28.3584 147.547 27.566C148.133 26.7145 148.432 25.6984 148.4 24.6654V21.548C148.045 21.6938 147.664 21.8324 147.266 21.9604C146.868 22.0883 146.445 22.2128 145.997 22.3158C145.549 22.4189 145.08 22.5362 144.575 22.6322C144.07 22.7282 143.562 22.8206 143.025 22.9024C142.137 23.0161 141.276 23.2831 140.48 23.6915C139.881 24.0016 139.376 24.4654 139.015 25.0351C138.696 25.5721 138.532 26.1876 138.542 26.8124C138.517 27.2696 138.603 27.7262 138.794 28.1425C138.984 28.5588 139.274 28.9222 139.637 29.2011C140.458 29.7813 141.449 30.0726 142.453 30.0293Z" fill="#011F2F"/>
<path d="M181.646 16.8666V37.9241H168.201V0.486961H180.963V7.59618H181.354C182.11 5.30019 183.628 3.33126 185.656 2.01544C187.778 0.728212 190.205 0.0304663 192.686 -0.00577561C195.168 -0.0420176 197.614 0.584556 199.773 1.80928C201.724 3.01286 203.302 4.73602 204.33 6.78573C205.44 9.03448 205.988 11.5193 205.926 14.0265V37.9099H192.471V16.8666C192.485 15.0135 192.018 13.5596 191.07 12.5051C190.122 11.4506 188.801 10.9221 187.106 10.9197C186.098 10.8928 185.1 11.1384 184.22 11.6307C183.4 12.1098 182.741 12.8227 182.329 13.6781C181.866 14.6766 181.632 15.7661 181.646 16.8666Z" fill="#011F2F"/>
<path d="M230.594 38.6066C226.532 38.6066 223.054 37.7985 220.16 36.1824C217.327 34.6243 215.014 32.2684 213.509 29.4073C211.961 26.5067 211.189 23.1393 211.191 19.3051C211.193 15.4708 211.966 12.1034 213.509 9.20288C215.014 6.34069 217.327 3.98359 220.16 2.42424C223.054 0.808081 226.532 0 230.594 0C234.656 0 238.134 0.808081 241.027 2.42424C243.862 3.98236 246.177 6.33969 247.682 9.20288C249.225 12.0987 249.996 15.4661 249.996 19.3051C249.996 23.1441 249.225 26.5115 247.682 29.4073C246.177 32.2694 243.862 34.6255 241.027 36.1824C238.134 37.8009 234.656 38.609 230.594 38.6066ZM230.693 28.6537C231.787 28.6692 232.844 28.2587 233.64 27.5091C234.551 26.6072 235.215 25.4859 235.567 24.2531C236.053 22.6158 236.284 20.9132 236.25 19.2056C236.285 17.4943 236.055 15.7879 235.567 14.1473C235.215 12.9155 234.552 11.7952 233.64 10.8949C232.845 10.1436 231.787 9.7329 230.693 9.75029C229.553 9.72589 228.447 10.135 227.597 10.8949C226.657 11.7815 225.975 12.9052 225.62 14.1473C225.132 15.7879 224.902 17.4943 224.938 19.2056C224.904 20.9132 225.134 22.6158 225.62 24.2531C225.973 25.5001 226.656 26.6288 227.597 27.5198C228.448 28.2785 229.554 28.6874 230.693 28.6644V28.6537Z" fill="#011F2F"/>
<path d="M19.4028 70.232C15.3383 70.232 11.8604 69.4227 8.96907 67.8042C6.13348 66.2484 3.81892 63.892 2.31426 61.0291C0.771419 58.1285 0 54.7564 0 50.9127C0 47.069 0.771419 43.7016 2.31426 40.8105C3.81973 37.9473 6.134 35.59 8.96907 34.0319C11.8628 32.4181 15.3407 31.61 19.4028 31.6076C23.4649 31.6052 26.9428 32.4133 29.8365 34.0319C32.67 35.592 34.9838 37.9488 36.4913 40.8105C38.0318 43.7205 38.802 47.0879 38.802 50.9127C38.802 54.7374 38.0306 58.1048 36.4877 61.0149C34.981 63.8763 32.667 66.2321 29.8329 67.79C26.9416 69.418 23.4649 70.232 19.4028 70.232ZM19.4988 60.2791C20.5938 60.2963 21.6524 59.8856 22.4493 59.1345C23.3632 58.2304 24.027 57.1049 24.3761 55.8678C25.2862 52.5619 25.2862 49.0715 24.3761 45.7656C24.0253 44.5323 23.3616 43.4107 22.4493 42.5096C21.6524 41.7585 20.5938 41.3478 19.4988 41.365C18.3601 41.3412 17.2547 41.7502 16.406 42.5096C15.4659 43.3971 14.783 44.5221 14.4294 45.7656C13.5193 49.0715 13.5193 52.5619 14.4294 55.8678C14.78 57.1177 15.4631 58.2492 16.406 59.1416C17.2547 59.901 18.3601 60.31 19.4988 60.2862V60.2791Z" fill="white"/>
<path d="M62.3036 70.2319C58.2439 70.2319 54.7672 69.4227 51.8735 67.8041C49.0379 66.2483 46.7233 63.8919 45.2186 61.029C43.6711 58.1285 42.8985 54.7611 42.9008 50.9268C42.9032 47.0926 43.6758 43.7252 45.2186 40.8246C46.7241 37.9615 49.0384 35.6041 51.8735 34.046C54.7624 32.4322 58.2391 31.6241 62.3036 31.6218C65.9746 31.6218 69.1563 32.2841 71.8486 33.6088C74.4292 34.8364 76.6005 36.7829 78.1017 39.2144C79.5805 41.6268 80.3271 44.4586 80.3413 47.7099H67.8635C67.6822 45.7442 67.1205 44.2442 66.1678 43.2133C65.7041 42.7063 65.1361 42.3059 64.5027 42.0395C63.8694 41.7732 63.1858 41.6474 62.4991 41.6706C61.3901 41.6506 60.3071 42.0078 59.4277 42.6837C58.4653 43.4802 57.7541 44.5382 57.38 45.73C56.8558 47.379 56.6154 49.105 56.669 50.8344C56.615 52.5651 56.8554 54.2923 57.38 55.9424C57.7534 57.1308 58.4619 58.1861 59.4206 58.9816C60.3 59.6575 61.383 60.0147 62.492 59.9946C63.4192 60.0077 64.3315 59.7614 65.1262 59.2837C65.9232 58.785 66.5676 58.0767 66.989 57.2363C67.5032 56.2073 67.7985 55.0829 67.8564 53.934H80.3342C80.2891 57.2327 79.5343 60.1048 78.0697 62.5504C76.6002 65.0096 74.4424 66.9844 71.8628 68.2307C69.1966 69.5648 66.0102 70.2319 62.3036 70.2319Z" fill="white"/>
<path d="M103.857 70.232C99.8614 70.232 96.425 69.4642 93.5479 67.9286C90.7123 66.4397 88.3927 64.129 86.893 61.2992C85.3218 58.4034 84.5361 54.9412 84.5361 50.9127C84.5361 47.0452 85.3159 43.6648 86.8753 40.7714C88.3832 37.933 90.6761 35.5884 93.4803 34.0176C96.3243 32.4086 99.6801 31.604 103.548 31.604C106.166 31.569 108.769 32.0148 111.226 32.9192C113.441 33.7471 115.447 35.0503 117.103 36.7369C118.767 38.4623 120.046 40.5222 120.853 42.7797C121.766 45.352 122.212 48.0663 122.172 50.7954V53.9163H88.7274V46.5405H109.79C109.792 45.5344 109.508 44.5486 108.973 43.6968C108.444 42.8776 107.708 42.2128 106.84 41.7702C105.908 41.2967 104.874 41.0587 103.829 41.0771C102.789 41.0659 101.761 41.3036 100.832 41.7702C99.9512 42.2082 99.1991 42.8671 98.6492 43.6826C98.0959 44.5287 97.7962 45.5154 97.7853 46.5263V54.5206C97.7663 55.6387 98.0253 56.7441 98.539 57.7375C99.0341 58.6707 99.7884 59.441 100.711 59.9556C101.759 60.5175 102.935 60.7945 104.124 60.7589C104.988 60.7696 105.848 60.6375 106.669 60.3679C107.402 60.1312 108.078 59.7464 108.656 59.2376C109.201 58.7526 109.619 58.1427 109.876 57.4602H122.161C121.789 59.9409 120.752 62.2747 119.161 64.214C117.487 66.1977 115.337 67.724 112.912 68.6502C110.324 69.7047 107.305 70.232 103.857 70.232Z" fill="white"/>
<path d="M138.063 70.1325C135.896 70.1744 133.744 69.7728 131.738 68.9523C129.973 68.2167 128.473 66.9622 127.437 65.3551C126.394 63.7484 125.874 61.7009 125.876 59.2127C125.826 57.406 126.185 55.6113 126.925 53.9626C127.59 52.5485 128.596 51.3212 129.851 50.3902C131.171 49.4265 132.651 48.7044 134.223 48.2574C135.985 47.7535 137.795 47.4354 139.623 47.3083C141.721 47.1448 143.407 46.9458 144.682 46.7111C145.957 46.4765 146.879 46.1436 147.448 45.7123C147.719 45.5175 147.939 45.2592 148.088 44.9599C148.236 44.6606 148.31 44.3295 148.301 43.9954V43.8959C148.321 43.4575 148.229 43.0213 148.033 42.6286C147.837 42.236 147.544 41.9001 147.181 41.6529C146.326 41.1031 145.321 40.8312 144.305 40.8745C143.2 40.8253 142.106 41.1183 141.173 41.7134C140.761 42.0133 140.418 42.3983 140.168 42.8423C139.918 43.2864 139.766 43.779 139.723 44.2869H127.337C127.495 42.0301 128.248 39.8555 129.52 37.9846C130.809 36.0627 132.698 34.5224 135.187 33.3636C137.675 32.2048 140.78 31.6242 144.501 31.6218C146.937 31.5894 149.366 31.9054 151.714 32.5602C153.666 33.1004 155.506 33.9839 157.149 35.1693C158.57 36.1989 159.742 37.5353 160.576 39.0794C161.365 40.5691 161.77 42.2317 161.756 43.9172V69.5602H149.179V64.2851H148.887C148.218 65.5856 147.293 66.7378 146.168 67.6727C145.097 68.5365 143.862 69.1749 142.538 69.5495C141.081 69.9507 139.574 70.1469 138.063 70.1325ZM142.453 61.6512C143.45 61.6577 144.436 61.4415 145.34 61.0185C146.223 60.6114 146.984 59.9802 147.547 59.1878C148.133 58.3365 148.432 57.3203 148.4 56.2873V53.1699C148.045 53.3156 147.664 53.4542 147.266 53.5822C146.868 53.7102 146.445 53.8346 145.997 53.9377C145.549 54.0408 145.08 54.1581 144.575 54.254C144.07 54.35 143.562 54.4424 143.025 54.5242C142.137 54.6373 141.275 54.9056 140.48 55.3169C139.881 55.6248 139.375 56.0875 139.015 56.6569C138.696 57.1939 138.532 57.8094 138.543 58.4343C138.516 58.8915 138.602 59.3482 138.793 59.7646C138.984 60.1809 139.274 60.5443 139.637 60.823C140.458 61.4031 141.449 61.6944 142.453 61.6512Z" fill="white"/>
<path d="M181.646 48.4884V69.5495H168.201V32.1088H180.963V39.218H181.354C182.109 36.9206 183.627 34.9502 185.656 33.6337C187.778 32.3465 190.205 31.6488 192.686 31.6125C195.168 31.5763 197.614 32.2028 199.772 33.4276C201.723 34.6322 203.301 36.3551 204.33 38.404C205.442 40.6523 205.99 43.1374 205.926 45.6447V69.5317H192.471V48.4884C192.485 46.6377 192.018 45.1838 191.07 44.1269C190.122 43.07 188.801 42.5416 187.106 42.5416C186.098 42.5169 185.101 42.7624 184.22 43.2525C183.4 43.7317 182.741 44.4446 182.328 45.3C181.866 46.2986 181.633 47.388 181.646 48.4884Z" fill="white"/>
<path d="M230.594 70.232C226.532 70.232 223.054 69.4227 220.16 67.8042C217.326 66.2471 215.013 63.891 213.509 61.0291C211.961 58.1285 211.189 54.7611 211.191 50.9269C211.193 47.0927 211.966 43.7253 213.509 40.8247C215.014 37.9625 217.327 35.6054 220.16 34.0461C223.054 32.4323 226.532 31.6242 230.594 31.6218C234.656 31.6195 238.134 32.4275 241.027 34.0461C243.862 35.6042 246.177 37.9615 247.682 40.8247C249.225 43.7253 249.996 47.0927 249.996 50.9269C249.996 54.7611 249.225 58.1285 247.682 61.0291C246.178 63.892 243.863 66.2484 241.027 67.8042C238.134 69.4227 234.656 70.232 230.594 70.232ZM230.693 60.2791C231.787 60.2965 232.845 59.8857 233.64 59.1345C234.552 58.2373 235.216 57.1192 235.567 55.8891C236.477 52.5832 236.477 49.0929 235.567 45.7869C235.218 44.5531 234.554 43.4311 233.64 42.5309C232.845 41.7797 231.787 41.3689 230.693 41.3863C229.553 41.3619 228.447 41.771 227.597 42.5309C226.658 43.4193 225.975 44.544 225.62 45.7869C224.71 49.0929 224.71 52.5832 225.62 55.8891C225.973 57.1359 226.656 58.2645 227.597 59.1558C228.449 59.9106 229.555 60.3145 230.693 60.2862V60.2791Z" fill="white"/>
</g>
<defs>
<clipPath id="clip0">
<rect width="250" height="70.232" fill="white"/>
</clipPath>
</defs>
</svg>
